<svg width="16" height="16" viewBox="0 0 16 16" fill="none" xmlns="http://www.w3.org/2000/svg">
<path d="M7.86957 16C4.42892 16 1.34822 13.8567 0.203302 10.6669C0.135302 10.4771 0.236563 10.2698 0.428737 10.2029C0.62165 10.1375 0.832303 10.2356 0.900303 10.4247C1.941 13.3244 4.74157 15.2727 7.86957 15.2727C11.9451 15.2727 15.2609 12.0102 15.2609 8C15.2609 3.98982 11.9451 0.727273 7.86957 0.727273C4.74157 0.727273 1.941 2.67564 0.901042 5.576C0.833042 5.76509 0.62165 5.86327 0.429476 5.79782C0.237302 5.73091 0.136041 5.52364 0.204041 5.33382C1.34822 2.14327 4.42892 0 7.86957 0C12.3524 0 16 3.58909 16 8C16 12.4109 12.3524 16 7.86957 16Z" fill="#55CAE8"/>
</svg>
